<?xml version="1.0" standalone="no"?>
<!DOCTYPE svg PUBLIC "-//W3C//DTD SVG 20010904//EN"
 "http://www.w3.org/TR/2001/REC-SVG-20010904/DTD/svg10.dtd">
<svg version="1.0" xmlns="http://www.w3.org/2000/svg"
 width="700.000000pt" height="700.000000pt" viewBox="0 0 700.000000 700.000000"
 preserveAspectRatio="xMidYMid meet">
<metadata>
Created by potrace 1.14, written by Peter Selinger 2001-2017
</metadata>
<g transform="translate(0.000000,700.000000) scale(0.100000,-0.100000)"
fill="#000000" stroke="none">
<path d="M4719 6696 c-2 -2 -45 -6 -95 -9 -50 -4 -97 -8 -105 -11 -8 -3 -38
-7 -68 -11 -30 -3 -64 -8 -75 -10 -12 -3 -32 -7 -46 -9 -241 -41 -571 -170
-809 -314 -71 -43 -242 -162 -267 -186 -6 -6 -29 -24 -50 -41 -68 -52 -277
-267 -345 -355 -81 -103 -159 -220 -209 -313 -21 -38 -50 -77 -65 -87 -15 -10
-80 -69 -144 -132 -212 -207 -484 -339 -816 -398 -139 -24 -371 -29 -730 -16
-239 9 -407 10 -465 2 -166 -24 -259 -95 -345 -266 -36 -73 -48 -115 -60 -223
-6 -46 -4 -50 37 -91 77 -76 239 -167 482 -271 104 -44 492 -178 546 -189 14
-3 50 -12 82 -20 31 -8 67 -17 80 -20 12 -3 79 -17 148 -31 69 -14 141 -28
160 -31 19 -3 46 -7 60 -9 14 -2 52 -7 85 -10 33 -4 71 -8 85 -10 86 -13 249
-19 485 -20 299 0 408 7 590 36 92 15 103 17 125 24 12 4 46 -9 90 -35 113
-64 210 -106 390 -172 291 -106 400 -200 454 -388 40 -142 45 -248 16 -360
-38 -150 -128 -356 -258 -591 -77 -139 -260 -438 -277 -454 -7 -5 -47 -53 -91
-105 -43 -52 -81 -97 -84 -100 -37 -35 -200 -242 -200 -254 0 -23 53 -159 93
-236 31 -63 103 -180 116 -190 3 -3 19 -23 36 -45 50 -68 175 -182 259 -238
158 -104 306 -159 509 -191 86 -13 326 -15 412 -2 22 3 58 8 81 11 72 10 356
72 452 99 336 94 732 262 999 423 l81 49 2 194 c1 107 3 269 4 360 1 91 -1
167 -4 170 -7 5 208 744 239 825 5 11 23 65 40 120 60 185 122 331 260 619 45
93 81 170 81 172 0 1 16 37 35 78 19 42 35 79 35 82 0 3 7 20 15 37 59 125
151 464 170 626 4 30 8 63 10 73 25 126 24 523 0 638 -3 14 -7 43 -10 65 -6
57 -59 266 -91 360 -177 525 -542 949 -1011 1176 -180 87 -423 158 -628 185
-27 3 -59 8 -70 11 -24 5 -421 13 -426 9z"/>
</g>
</svg>
