<?xml version="1.0" encoding="UTF-8"?>
<!-- Created with Inkscape (http://www.inkscape.org/) -->
<svg width="48mm" height="48mm" version="1.1" viewBox="0 0 48 48" xmlns="http://www.w3.org/2000/svg">
 <g transform="translate(4.0808e-6 1.0597e-5)">
  <g fill="#0ebd9d" stroke-width=".35014" aria-label="D">
   <path d="m42.588 23.529q0 8.0672-2.8908 13.513-2.8235 5.4454-8.2017 8.2017-5.3782 2.7563-12.908 2.7563h-13.176v-48h14.454q7.0588 0 12.168 2.6891 5.1092 2.6891 7.7983 7.9328 2.7563 5.1765 2.7563 12.908zm-9.4118 0.26891q0-5.7143-1.5462-9.4118-1.479-3.6975-4.5042-5.4454-2.958-1.8151-7.3277-1.8151h-5.3782v33.681h4.3697q7.3277 0 10.824-4.2353 3.563-4.3025 3.563-12.773z"/>
  </g>
 </g>
</svg>
