<!--
This is a modification of the SVG file for the "duck" emoji from Noto Emoji
library (https://github.com/googlefonts/noto-emoji), which is licensed under the
Apache License, Version 2.0
(https://github.com/googlefonts/noto-emoji/blob/main/svg/LICENSE).

Modifications: Body of the duck was removed, optimize for web
-->
<svg xml:space="preserve" width="48" height="48" xmlns="http://www.w3.org/2000/svg"><linearGradient id="a" gradientUnits="userSpaceOnUse" x1="47.489" y1="11.504" x2="51.02" y2="45.102"><stop offset=".171" style="stop-color:#01ab46"/><stop offset=".345" style="stop-color:#089e42"/><stop offset=".671" style="stop-color:#1a7a37"/><stop offset="1" style="stop-color:#2f502a"/></linearGradient><g style="opacity:1"><g style="display:inline"><path style="fill:url(#a)" d="M35.84 48.65s5.84-8.38 5.42-11.61c-.42-3.24-1.55-3.94-4.79-5.07-3.24-1.13-5.14-2.89-5.14-2.89s-2.35-11.03-2.11-12.39c.28-1.62 6.12-12.53 19.99-12.53 13.37 0 18.86 11.22 18.16 19.85-.63 7.81-3.52 10-5.56 16.47-2.04 6.48-3.03 10.35-3.03 10.35l-12.04 2.46-10.07-2.18Z" transform="matrix(.79082 0 0 .79082 -5.477 -1.22)"/><path style="fill:#ffbf18" d="M7.12 25.07c0 1.2 7.46 4.72 14.5 5.56 7.04.84 11.4-.28 11.4-.28s-1.2-3.03-1.2-5.28c0-2.25 1.16-7.9-.63-9.22-1.62-1.2-2.96 1.27-3.94 1.97-.99.7-3.8 2.67-8.17 2.82-4.37.15-8.17-.56-9.71.28-1.54.84-2.25 2.88-2.25 4.15z" transform="matrix(.79082 0 0 .79082 -5.477 -1.22)"/><path style="fill:#2d2b33" d="M50.2 20.77c-.42 1.75-1.61 3.12-3.94 2.75-2.18-.35-3.24-2.6-2.6-4.79.5-1.73 1.79-2.9 3.97-2.53 2.5.42 2.97 2.88 2.57 4.57z" transform="matrix(.79082 0 0 .79082 -5.477 -1.22)"/><path style="fill:#73df86" d="M50.92 25.57c2.47-.78 4.3-.79 4.04-2.47-.3-1.93-3.51-1.38-5.55-.3-2.17 1.15-4.99 3.11-3.74 4.7 1.33 1.69 3.83-1.48 5.25-1.93z" transform="matrix(.79082 0 0 .79082 -5.477 -1.22)"/><path style="fill:#fff" d="M33.16 51.6s2.16 9.43 12.95 7.84c7.71-1.14 13.42-4.97 13.42-4.97l.09-6.29s-5.12 3-11.26 2.91c-6.38-.09-11.92-3.38-11.92-3.38Z" transform="matrix(.79082 0 0 .79082 -5.477 -1.22)"/></g></g></svg>
